<mxfile host="app.diagrams.net" modified="2023-06-07T15:19:42.601Z" agent="Mozilla/5.0 (Windows NT 10.0; Win64; x64) AppleWebKit/537.36 (KHTML, like Gecko) Chrome/114.0.0.0 Safari/537.36" etag="-RnN0qYBLHhGuwbwh2vB" version="21.3.7" type="device">
  <diagram name="第 1 页" id="AH04ewEKHyB6nGCWH3Fv">
    <mxGraphModel dx="955" dy="459" grid="1" gridSize="10" guides="1" tooltips="1" connect="1" arrows="1" fold="1" page="1" pageScale="1" pageWidth="827" pageHeight="1169" math="0" shadow="0">
      <root>
        <mxCell id="0" />
        <mxCell id="1" parent="0" />
        <mxCell id="WTsnuqrgEj_GS-X_GoSZ-8" style="edgeStyle=none;rounded=0;orthogonalLoop=1;jettySize=auto;html=1;entryX=0;entryY=0.25;entryDx=0;entryDy=0;exitX=1;exitY=0.25;exitDx=0;exitDy=0;fillColor=#f8cecc;strokeColor=#b85450;strokeWidth=2;" edge="1" parent="1" source="WTsnuqrgEj_GS-X_GoSZ-2" target="WTsnuqrgEj_GS-X_GoSZ-4">
          <mxGeometry relative="1" as="geometry" />
        </mxCell>
        <mxCell id="WTsnuqrgEj_GS-X_GoSZ-29" value="RequestMappint(&quot;path&quot;)" style="edgeLabel;html=1;align=center;verticalAlign=middle;resizable=0;points=[];fontStyle=1" vertex="1" connectable="0" parent="WTsnuqrgEj_GS-X_GoSZ-8">
          <mxGeometry x="-0.2623" y="-1" relative="1" as="geometry">
            <mxPoint x="30" y="-16" as="offset" />
          </mxGeometry>
        </mxCell>
        <mxCell id="WTsnuqrgEj_GS-X_GoSZ-10" style="edgeStyle=none;rounded=0;orthogonalLoop=1;jettySize=auto;html=1;entryX=0.75;entryY=0;entryDx=0;entryDy=0;exitX=0.75;exitY=1;exitDx=0;exitDy=0;strokeWidth=2;fillColor=#f8cecc;strokeColor=#b85450;" edge="1" parent="1" source="WTsnuqrgEj_GS-X_GoSZ-2" target="WTsnuqrgEj_GS-X_GoSZ-5">
          <mxGeometry relative="1" as="geometry" />
        </mxCell>
        <mxCell id="WTsnuqrgEj_GS-X_GoSZ-39" style="rounded=0;orthogonalLoop=1;jettySize=auto;html=1;strokeWidth=2;fillColor=#f8cecc;strokeColor=#b85450;" edge="1" parent="1" source="WTsnuqrgEj_GS-X_GoSZ-2" target="WTsnuqrgEj_GS-X_GoSZ-38">
          <mxGeometry relative="1" as="geometry" />
        </mxCell>
        <mxCell id="WTsnuqrgEj_GS-X_GoSZ-2" value="前端控制器&lt;br&gt;DispatchServlet" style="rounded=1;whiteSpace=wrap;html=1;sketch=1;curveFitting=1;jiggle=2;fillColor=#f8cecc;strokeColor=#b85450;fontStyle=1" vertex="1" parent="1">
          <mxGeometry x="320" y="300" width="120" height="60" as="geometry" />
        </mxCell>
        <mxCell id="WTsnuqrgEj_GS-X_GoSZ-7" style="edgeStyle=none;rounded=0;orthogonalLoop=1;jettySize=auto;html=1;exitX=0.974;exitY=0.29;exitDx=0;exitDy=0;exitPerimeter=0;entryX=0;entryY=0.25;entryDx=0;entryDy=0;fillColor=#f8cecc;strokeColor=#b85450;strokeWidth=2;" edge="1" parent="1" source="WTsnuqrgEj_GS-X_GoSZ-3" target="WTsnuqrgEj_GS-X_GoSZ-2">
          <mxGeometry relative="1" as="geometry">
            <mxPoint x="320" y="315" as="targetPoint" />
          </mxGeometry>
        </mxCell>
        <mxCell id="WTsnuqrgEj_GS-X_GoSZ-3" value="用户" style="ellipse;whiteSpace=wrap;html=1;aspect=fixed;fillColor=#fff2cc;strokeColor=#d6b656;sketch=1;curveFitting=1;jiggle=2;fontStyle=1" vertex="1" parent="1">
          <mxGeometry x="50" y="290" width="80" height="80" as="geometry" />
        </mxCell>
        <mxCell id="WTsnuqrgEj_GS-X_GoSZ-9" style="edgeStyle=none;rounded=0;orthogonalLoop=1;jettySize=auto;html=1;entryX=1;entryY=0.75;entryDx=0;entryDy=0;exitX=0;exitY=0.75;exitDx=0;exitDy=0;strokeWidth=2;fillColor=#f8cecc;strokeColor=#b85450;" edge="1" parent="1" source="WTsnuqrgEj_GS-X_GoSZ-4" target="WTsnuqrgEj_GS-X_GoSZ-2">
          <mxGeometry relative="1" as="geometry" />
        </mxCell>
        <mxCell id="WTsnuqrgEj_GS-X_GoSZ-4" value="处理器&lt;br&gt;Controler" style="rounded=1;whiteSpace=wrap;html=1;sketch=1;curveFitting=1;jiggle=2;fillColor=#f8cecc;strokeColor=#b85450;fontStyle=1" vertex="1" parent="1">
          <mxGeometry x="720" y="300" width="120" height="60" as="geometry" />
        </mxCell>
        <mxCell id="WTsnuqrgEj_GS-X_GoSZ-11" style="edgeStyle=none;rounded=0;orthogonalLoop=1;jettySize=auto;html=1;entryX=0.25;entryY=1;entryDx=0;entryDy=0;exitX=0.25;exitY=0;exitDx=0;exitDy=0;fillColor=#f8cecc;strokeColor=#b85450;strokeWidth=2;" edge="1" parent="1" source="WTsnuqrgEj_GS-X_GoSZ-5" target="WTsnuqrgEj_GS-X_GoSZ-2">
          <mxGeometry relative="1" as="geometry" />
        </mxCell>
        <mxCell id="WTsnuqrgEj_GS-X_GoSZ-5" value="视图解析器&lt;br&gt;（Thymleaf等）" style="rounded=1;whiteSpace=wrap;html=1;sketch=1;curveFitting=1;jiggle=2;fillColor=#f8cecc;strokeColor=#b85450;fontStyle=1" vertex="1" parent="1">
          <mxGeometry x="320" y="525" width="120" height="60" as="geometry" />
        </mxCell>
        <mxCell id="WTsnuqrgEj_GS-X_GoSZ-13" value="&lt;b&gt;Tomcat启动&lt;br&gt;&lt;/b&gt;加载web.xml&lt;br&gt;创建ioc容器" style="whiteSpace=wrap;html=1;aspect=fixed;fillColor=#f5f5f5;fontColor=#333333;strokeColor=#666666;rounded=1;sketch=1;curveFitting=1;jiggle=2;" vertex="1" parent="1">
          <mxGeometry x="40" y="180" width="80" height="80" as="geometry" />
        </mxCell>
        <mxCell id="WTsnuqrgEj_GS-X_GoSZ-20" style="edgeStyle=orthogonalEdgeStyle;rounded=0;orthogonalLoop=1;jettySize=auto;html=1;entryX=0;entryY=0.5;entryDx=0;entryDy=0;exitX=0.5;exitY=0;exitDx=0;exitDy=0;fontStyle=1;strokeWidth=2;fillColor=#dae8fc;strokeColor=#6c8ebf;" edge="1" parent="1" source="WTsnuqrgEj_GS-X_GoSZ-16" target="WTsnuqrgEj_GS-X_GoSZ-18">
          <mxGeometry relative="1" as="geometry" />
        </mxCell>
        <mxCell id="WTsnuqrgEj_GS-X_GoSZ-16" value="&lt;b&gt;静态资源（CSS、JS）&lt;/b&gt;" style="text;strokeColor=none;align=center;fillColor=none;html=1;verticalAlign=middle;whiteSpace=wrap;rounded=0;" vertex="1" parent="1">
          <mxGeometry x="165" y="250" width="90" height="30" as="geometry" />
        </mxCell>
        <mxCell id="WTsnuqrgEj_GS-X_GoSZ-34" style="edgeStyle=orthogonalEdgeStyle;rounded=0;orthogonalLoop=1;jettySize=auto;html=1;entryX=1;entryY=0.5;entryDx=0;entryDy=0;strokeWidth=2;fillColor=#dae8fc;strokeColor=#6c8ebf;" edge="1" parent="1" source="WTsnuqrgEj_GS-X_GoSZ-18" target="WTsnuqrgEj_GS-X_GoSZ-5">
          <mxGeometry relative="1" as="geometry">
            <Array as="points">
              <mxPoint x="490" y="230" />
              <mxPoint x="490" y="555" />
            </Array>
          </mxGeometry>
        </mxCell>
        <mxCell id="WTsnuqrgEj_GS-X_GoSZ-18" value="Tomcat默认&lt;br&gt;前端控制器&lt;br&gt;DefaultServlet" style="rounded=1;whiteSpace=wrap;html=1;sketch=1;curveFitting=1;jiggle=2;fillColor=#dae8fc;strokeColor=#6c8ebf;fontStyle=1" vertex="1" parent="1">
          <mxGeometry x="320" y="200" width="120" height="60" as="geometry" />
        </mxCell>
        <mxCell id="WTsnuqrgEj_GS-X_GoSZ-26" value="&lt;b&gt;动态资源&lt;/b&gt;" style="text;strokeColor=none;align=center;fillColor=none;html=1;verticalAlign=middle;whiteSpace=wrap;rounded=0;" vertex="1" parent="1">
          <mxGeometry x="180" y="280" width="60" height="30" as="geometry" />
        </mxCell>
        <mxCell id="WTsnuqrgEj_GS-X_GoSZ-31" value="视图文件名：success&lt;br&gt;数据：String、Model、View" style="edgeLabel;html=1;align=left;verticalAlign=middle;resizable=0;points=[];fontStyle=1" vertex="1" connectable="0" parent="1">
          <mxGeometry x="510" y="360" as="geometry" />
        </mxCell>
        <mxCell id="WTsnuqrgEj_GS-X_GoSZ-35" value="视图文件名：success&lt;br&gt;数据：封装为ModelAndView" style="edgeLabel;html=1;align=left;verticalAlign=middle;resizable=0;points=[];fontStyle=1" vertex="1" connectable="0" parent="1">
          <mxGeometry x="370" y="400" as="geometry" />
        </mxCell>
        <mxCell id="WTsnuqrgEj_GS-X_GoSZ-37" value="success.html&lt;br&gt;ModelAndView" style="edgeLabel;html=1;align=left;verticalAlign=middle;resizable=0;points=[];fontStyle=1" vertex="1" connectable="0" parent="1">
          <mxGeometry x="310" y="450" as="geometry" />
        </mxCell>
        <mxCell id="WTsnuqrgEj_GS-X_GoSZ-40" style="rounded=0;orthogonalLoop=1;jettySize=auto;html=1;entryX=0.702;entryY=0.986;entryDx=0;entryDy=0;entryPerimeter=0;fillColor=#f8cecc;strokeColor=#b85450;strokeWidth=2;" edge="1" parent="1" source="WTsnuqrgEj_GS-X_GoSZ-38" target="WTsnuqrgEj_GS-X_GoSZ-3">
          <mxGeometry relative="1" as="geometry" />
        </mxCell>
        <mxCell id="WTsnuqrgEj_GS-X_GoSZ-41" value="success.html" style="edgeLabel;html=1;align=center;verticalAlign=middle;resizable=0;points=[];fontStyle=1" vertex="1" connectable="0" parent="WTsnuqrgEj_GS-X_GoSZ-40">
          <mxGeometry x="-0.1615" y="-2" relative="1" as="geometry">
            <mxPoint x="-1" as="offset" />
          </mxGeometry>
        </mxCell>
        <mxCell id="WTsnuqrgEj_GS-X_GoSZ-38" value="视图渲染&lt;br&gt;数据填充" style="rounded=1;whiteSpace=wrap;html=1;sketch=1;curveFitting=1;jiggle=2;fillColor=#f8cecc;strokeColor=#b85450;fontStyle=1" vertex="1" parent="1">
          <mxGeometry x="130" y="520" width="120" height="60" as="geometry" />
        </mxCell>
        <mxCell id="WTsnuqrgEj_GS-X_GoSZ-44" value="1" style="ellipse;whiteSpace=wrap;html=1;aspect=fixed;fontStyle=1;strokeColor=none;fillColor=default;fontColor=#FF0000;fontSize=15;" vertex="1" parent="1">
          <mxGeometry x="200" y="320" width="20" height="20" as="geometry" />
        </mxCell>
        <mxCell id="WTsnuqrgEj_GS-X_GoSZ-45" value="2" style="ellipse;whiteSpace=wrap;html=1;aspect=fixed;fontStyle=1;strokeColor=none;fillColor=default;fontColor=#FF0000;fontSize=15;" vertex="1" parent="1">
          <mxGeometry x="650" y="290" width="20" height="20" as="geometry" />
        </mxCell>
        <mxCell id="WTsnuqrgEj_GS-X_GoSZ-46" value="3" style="ellipse;whiteSpace=wrap;html=1;aspect=fixed;fontStyle=1;strokeColor=none;fillColor=default;fontColor=#FF0000;fontSize=15;" vertex="1" parent="1">
          <mxGeometry x="650" y="330" width="20" height="20" as="geometry" />
        </mxCell>
        <mxCell id="WTsnuqrgEj_GS-X_GoSZ-48" value="4" style="ellipse;whiteSpace=wrap;html=1;aspect=fixed;fontStyle=1;strokeColor=none;fillColor=default;fontColor=#FF0000;fontSize=15;" vertex="1" parent="1">
          <mxGeometry x="414" y="430" width="20" height="20" as="geometry" />
        </mxCell>
        <mxCell id="WTsnuqrgEj_GS-X_GoSZ-49" value="5" style="ellipse;whiteSpace=wrap;html=1;aspect=fixed;fontStyle=1;strokeColor=none;fillColor=default;fontColor=#FF0000;fontSize=15;" vertex="1" parent="1">
          <mxGeometry x="330" y="480" width="20" height="20" as="geometry" />
        </mxCell>
        <mxCell id="WTsnuqrgEj_GS-X_GoSZ-51" value="6" style="ellipse;whiteSpace=wrap;html=1;aspect=fixed;fontStyle=1;strokeColor=none;fillColor=default;fontColor=#FF0000;fontSize=15;" vertex="1" parent="1">
          <mxGeometry x="260" y="420" width="20" height="20" as="geometry" />
        </mxCell>
        <mxCell id="WTsnuqrgEj_GS-X_GoSZ-52" value="7" style="ellipse;whiteSpace=wrap;html=1;aspect=fixed;fontStyle=1;strokeColor=none;fillColor=default;fontColor=#FF0000;fontSize=15;" vertex="1" parent="1">
          <mxGeometry x="130" y="420" width="20" height="20" as="geometry" />
        </mxCell>
      </root>
    </mxGraphModel>
  </diagram>
</mxfile>
